<svg width="21" height="16" viewBox="0 0 21 16" fill="none" xmlns="http://www.w3.org/2000/svg">
<path d="M6.76598 12.5763H6.76694C6.76774 12.5763 6.76854 12.5762 6.76934 12.5762H17.9238C18.1984 12.5762 18.4399 12.394 18.5153 12.13L20.9763 3.51669C21.0293 3.33099 20.9921 3.13136 20.876 2.97723C20.7597 2.8231 20.5778 2.73242 20.3848 2.73242H5.34709L4.90729 0.753258C4.84465 0.471756 4.59503 0.271484 4.30664 0.271484H0.615234C0.275413 0.271484 0 0.546898 0 0.886719C0 1.22654 0.275413 1.50195 0.615234 1.50195H3.81317C3.89104 1.85267 5.91779 10.9732 6.03442 11.4979C5.38058 11.7821 4.92187 12.4341 4.92187 13.1914C4.92187 14.2091 5.74988 15.0371 6.76758 15.0371H17.9238C18.2636 15.0371 18.5391 14.7617 18.5391 14.4219C18.5391 14.0821 18.2636 13.8066 17.9238 13.8066H6.76758C6.4284 13.8066 6.15234 13.5306 6.15234 13.1914C6.15234 12.8527 6.42744 12.5771 6.76598 12.5763ZM19.5691 3.96289L17.4597 11.3457H7.26105L5.62042 3.96289H19.5691Z" fill="black"/>
</svg>
