<svg width="18" height="18" viewBox="0 0 18 18" fill="none" xmlns="http://www.w3.org/2000/svg">
<g clip-path="url(#clip0_1_5226)">
<path d="M17.9529 6.90433C17.8344 6.53985 17.5111 6.28181 17.1302 6.24734L11.9341 5.7756L9.88059 0.967905C9.72898 0.614689 9.384 0.386719 9.00002 0.386719C8.61605 0.386719 8.27093 0.614689 8.12028 0.967905L6.06676 5.7756L0.869868 6.24734C0.488911 6.28249 0.166319 6.54054 0.0471156 6.90433C-0.0714014 7.26881 0.0380517 7.66858 0.326173 7.92127L4.25399 11.3654L3.09587 16.4662C3.01114 16.8412 3.15671 17.229 3.4679 17.454C3.63517 17.5755 3.83169 17.6362 4.0289 17.6362C4.19837 17.6362 4.36797 17.5912 4.51945 17.5005L9.00002 14.8215L13.4798 17.5005C13.8084 17.6969 14.2216 17.6789 14.5321 17.454C14.8433 17.229 14.9889 16.8412 14.9042 16.4662L13.7461 11.3654L17.6739 7.92127C17.9619 7.66858 18.0714 7.26963 17.9529 6.90433Z" fill="black"/>
</g>
<defs>
<clipPath id="clip0_1_5226">
<rect width="18" height="18" fill="white"/>
</clipPath>
</defs>
</svg>
