<svg width="18" height="18" viewBox="0 0 18 18" fill="none" xmlns="http://www.w3.org/2000/svg">
<path d="M1.84367 8.9998L2.68827 9.84441C6.16985 13.326 11.8339 13.326 15.3154 9.84441L16.1568 8.9998L15.3122 8.1552C11.8306 4.67362 6.16663 4.67362 2.68505 8.1552L1.84367 8.9998ZM9.00025 13.0681C6.5567 13.0681 4.11314 12.1364 2.25308 10.2764L1.19248 9.21579C1.07321 9.09651 1.07321 8.90309 1.19248 8.78059L2.25308 7.72C5.97321 3.99987 12.0273 3.99987 15.7474 7.72L16.808 8.78059C16.9273 8.89987 16.9273 9.09329 16.808 9.21579L15.7474 10.2764C13.8874 12.1364 11.4438 13.0681 9.00025 13.0681Z" fill="black" stroke="black" stroke-width="0.154737"/>
<path d="M8.99996 6.66258C7.71049 6.66258 6.66279 7.71028 6.66279 8.99975C6.66279 10.2892 7.71049 11.3369 8.99996 11.3369C10.2894 11.3369 11.3371 10.2892 11.3371 8.99975C11.3371 7.71028 10.2894 6.66258 8.99996 6.66258ZM8.99996 11.9494C7.372 11.9494 6.05029 10.6245 6.05029 8.99975C6.05029 7.37179 7.37523 6.05008 8.99996 6.05008C10.6247 6.05008 11.9496 7.37501 11.9496 8.99975C11.9496 10.6277 10.6279 11.9494 8.99996 11.9494Z" fill="black" stroke="black" stroke-width="0.154737"/>
</svg>
